<svg data-v-70b83f88="" version="1.0" xmlns="http://www.w3.org/2000/svg" xmlns:xlink="http://www.w3.org/1999/xlink" width="100%" height="100%" viewBox="0 0 340.000000 250.000000" preserveAspectRatio="xMidYMid meet" color-interpolation-filters="sRGB" style="margin: auto;">  <g data-v-70b83f88="" fill="#B94293" class="icon-text-wrapper icon-svg-group iconsvg" transform="translate(140,95)"><g class="iconsvg-imagesvg" transform="translate(0,0)"><g><rect fill="#B94293" fill-opacity="0" stroke-width="2" x="0" y="0" width="60" height="60" class="image-rect"></rect> <svg x="0" y="0" width="60" height="60" filtersec="colorsb5911073772" class="image-svg-svg primary" style="overflow: visible;"><svg version="1.1" id="cube" xmlns="http://www.w3.org/2000/svg" xmlns:xlink="http://www.w3.org/1999/xlink" x="0px" y="0px" viewBox="7.150000095367432 6.460000038146973 496.92999267578125 496.92999267578125" enable-background="new 0 0 511 507.62" xml:space="preserve">
<g>
	<path fill="#B94293" d="M503.4,273.42c0.45-6.11,0.68-12.27,0.68-18.5c0-26.06-4.02-51.18-11.46-74.78
		c-6.55-20.77-30.1-27.68-48.97-16.79l-60.59,34.98c-18.86,10.89-18.26,27.41,1.35,36.89l81.44,39.4
		C485.46,284.13,502.64,283.62,503.4,273.42z"></path>
	<path fill="#CE2079" d="M371.87,182.03l62.25-35.94c18.86-10.89,25.22-35.07,11.14-51.69c-19.94-23.53-44.19-43.3-71.52-58.09
		c-19.15-10.37-36.03,1.72-36.03,23.5v102.51C337.71,184.09,353.01,192.92,371.87,182.03z"></path>
	<path fill="#B3156D" d="M38.91,133.32C18.69,169.26,7.15,210.75,7.15,254.93c0,29.48,5.14,57.76,14.57,83.99
		c7.37,20.5,31.53,27.07,50.39,16.18l200.54-115.78c18.86-10.89,18.26-27.41-1.34-36.9L96.38,117.79
		C76.78,108.31,49.59,114.33,38.91,133.32z"></path>
	<path fill="#C21878" d="M317.99,163.67V53.8c0-21.78-13.67-43.18-30.94-45.37c-10.3-1.3-20.79-1.97-31.44-1.97
		c-57.39,0-110.23,19.47-152.29,52.15c-17.2,13.36-13.21,34.24,6.39,43.73l172.78,83.59C302.1,195.42,317.99,185.45,317.99,163.67z"></path>
	<path fill="#CD4593" d="M337.71,273.99v176.06c0,21.78,16.88,33.87,36.03,23.5c50.14-27.15,89.88-71.03,111.74-124.17
		c8.29-20.14-3.86-45.21-23.47-54.69l-88.8-42.96C353.61,242.24,337.71,252.21,337.71,273.99z"></path>
	<path fill="#B41685" d="M283.84,255.63L82.32,371.97c-18.86,10.89-24.63,34.71-9.91,50.77c45.42,49.56,110.68,80.65,183.2,80.65
		c10.65,0,21.14-0.67,31.44-1.97c17.27-2.18,30.94-23.58,30.94-45.37V275.34C317.99,253.56,302.7,244.73,283.84,255.63z"></path>
</g>
</svg></svg> <!----></g></g> <g transform="translate(30,67)"><g data-gra="path-name" fill-rule="" class="tp-name iconsvg-namesvg"><g transform="scale(1)"><g><path d="" transform="translate(0, 0)"></path></g> <!----> <!----> <!----> <!----> <!----> <!----> <!----></g></g> <!----></g></g><defs v-gra="od"></defs></svg>